<?xml version="1.0" encoding="utf-8"?>
<!-- Generator: Adobe Illustrator 27.1.1, SVG Export Plug-In . SVG Version: 6.00 Build 0)  -->
<svg version="1.1" id="Layer_1" xmlns="http://www.w3.org/2000/svg" xmlns:xlink="http://www.w3.org/1999/xlink" x="0px" y="0px"
	 viewBox="0 0 568.9 113.6" style="enable-background:new 0 0 568.9 113.6;" xml:space="preserve">
<style type="text/css">
	.st0{fill:#E12D2B;}
	.st1{fill:#24272C;}
</style>
<path class="st0" d="M94,110.6L94,110.6c-60.3,1.3-73.4-83.4-14.1-100.4c13.8-4.2,41.4-6.4,86.7-6.5c6.6,0,11.9,5.3,11.9,11.9
	s-5.3,11.9-11.8,12c-55.3,0.1-73.3,3.5-79.9,5.5c-30.3,8.1-28.2,48.8,1.7,53.4c0,0,0,0,0,0c28.4,3.1,41.6-32.4,17.5-49.8
	c7.8-0.8,20.1-1.5,29.6-1.8c3.6,6.1,5.9,13,6.6,20.1C145.5,83.3,122.3,109.8,94,110.6L94,110.6z M72.6,5.5C58.2,4.4,39.8,3.8,17,3.8
	c-6.6,0-11.9,5.3-11.9,11.9c0,6.6,5.3,11.9,11.8,12c10.2,0,19.2,0.1,27,0.4C50.5,17.8,60.3,10.1,72.6,5.5L72.6,5.5z"/>
<g>
	<path class="st1" d="M198.5,60.6c4.7,3,7.1,7.3,7.1,13c0,5-1.8,9-5.3,12.1c-3.6,3.1-8,4.7-13.2,4.7h-24.1V33h22.5
		c5.1,0,9.4,1.5,12.9,4.6c3.5,3,5.2,7,5.2,11.9C203.5,54,201.8,57.7,198.5,60.6z M185.4,45.3H176v10.2h9.4c1.5,0,2.7-0.5,3.6-1.4
		c0.9-1,1.4-2.2,1.4-3.7c0-1.5-0.5-2.7-1.4-3.7C188,45.8,186.8,45.3,185.4,45.3z M187,78.1c1.6,0,3-0.5,3.9-1.5c1-1,1.5-2.3,1.5-4
		s-0.5-3-1.5-4c-1-1-2.3-1.5-3.9-1.5h-11v11H187z"/>
	<path class="st1" d="M222.2,43.6c-1.5,1.4-3.2,2.2-5.2,2.2c-2,0-3.8-0.7-5.2-2.2c-1.5-1.4-2.2-3.2-2.2-5.2c0-2,0.7-3.8,2.2-5.2
		c1.4-1.4,3.2-2.2,5.2-2.2c2,0,3.8,0.7,5.2,2.2c1.4,1.4,2.2,3.2,2.2,5.2C224.4,40.4,223.7,42.2,222.2,43.6z M210.9,90.4v-41h12.3v41
		H210.9z"/>
	<path class="st1" d="M270.8,90.4h-13.9l-13.1-18.1v18.1h-12.3V33h12.3v34.4l12.3-18h14.4l-14.9,20.5L270.8,90.4z"/>
	<path class="st1" d="M283,74.8c1.4,3.8,4.7,5.7,9.8,5.7c3.3,0,6-1,7.9-3.1l9.8,5.7c-4,5.6-10,8.5-17.9,8.5
		c-6.9,0-12.4-2.1-16.5-6.2c-4.1-4.1-6.2-9.3-6.2-15.5c0-6.2,2-11.3,6.1-15.5c4.1-4.1,9.3-6.2,15.7-6.2c6,0,10.9,2.1,14.9,6.2
		c4,4.1,5.9,9.3,5.9,15.5c0,1.8-0.2,3.4-0.5,4.9H283z M282.8,65.6h17.6c-1.2-4.3-4.1-6.5-8.7-6.5C286.9,59.2,284,61.3,282.8,65.6z"
		/>
	<path class="st1" d="M342.2,33c7.9,0,14.6,2.7,19.9,8.2c5.3,5.5,8,12.3,8,20.5c0,8.2-2.7,15-8,20.5c-5.3,5.5-12,8.2-19.9,8.2h-23
		V33H342.2z M342.2,77.8c4.5,0,8.2-1.5,11-4.4c2.8-2.9,4.2-6.8,4.2-11.7c0-4.9-1.4-8.8-4.2-11.7c-2.8-2.9-6.5-4.4-11-4.4h-9.8v32.2
		H342.2z"/>
	<path class="st1" d="M387.2,74.8c1.4,3.8,4.7,5.7,9.8,5.7c3.3,0,6-1,7.9-3.1l9.8,5.7c-4,5.6-10,8.5-17.9,8.5
		c-6.9,0-12.4-2.1-16.5-6.2c-4.1-4.1-6.2-9.3-6.2-15.5c0-6.2,2-11.3,6.1-15.5c4.1-4.1,9.3-6.2,15.7-6.2c6,0,10.9,2.1,14.9,6.2
		c4,4.1,5.9,9.3,5.9,15.5c0,1.8-0.2,3.4-0.5,4.9H387.2z M387,65.6h17.6c-1.2-4.3-4.1-6.5-8.7-6.5C391.2,59.2,388.2,61.3,387,65.6z"
		/>
	<path class="st1" d="M462.4,90.4h-14l-13.1-18.1v18.1H423V33h12.3v34.4l12.3-18H462L447,69.9L462.4,90.4z"/>
	<path class="st1" d="M490.1,48.3c4.4,0,8,1.5,11,4.5c2.9,3,4.4,7.2,4.4,12.5v25.2h-12.3V67c0-2.4-0.7-4.3-2-5.5
		c-1.3-1.3-3.1-1.9-5.1-1.9c-2.4,0-4.2,0.7-5.6,2.1c-1.4,1.4-2.1,3.5-2.1,6.3v22.4h-12.3V33h12.3v20.3
		C480.8,49.9,484.8,48.3,490.1,48.3z"/>
	<path class="st1" d="M548.2,85.3c-4.2,4.2-9.4,6.3-15.4,6.3c-6.1,0-11.2-2.1-15.4-6.3c-4.2-4.2-6.3-9.3-6.3-15.4
		c0-6.1,2.1-11.2,6.3-15.4c4.2-4.2,9.4-6.3,15.4-6.3c6.1,0,11.2,2.1,15.4,6.3c4.2,4.2,6.3,9.3,6.3,15.4
		C554.5,76,552.4,81.1,548.2,85.3z M526.1,76.9c1.8,1.8,4,2.7,6.7,2.7c2.7,0,4.9-0.9,6.7-2.7c1.8-1.8,2.7-4.1,2.7-7
		c0-2.8-0.9-5.2-2.7-7c-1.8-1.8-4-2.7-6.7-2.7c-2.7,0-4.9,0.9-6.7,2.7c-1.8,1.8-2.7,4.1-2.7,7C523.4,72.8,524.3,75.1,526.1,76.9z"/>
</g>
</svg>
